<svg width="16" height="16" viewBox="0 0 16 16" fill="none" xmlns="http://www.w3.org/2000/svg">
<path d="M2.66675 7.81714C2.66675 7.56401 2.85485 7.35481 3.0989 7.3217L3.16675 7.31714L13.1667 7.31714C13.4429 7.31714 13.6667 7.541 13.6667 7.81714C13.6667 8.07027 13.4786 8.27947 13.2346 8.31257L13.1667 8.31714H3.16675C2.89061 8.31714 2.66675 8.09328 2.66675 7.81714Z" fill="#46A358"/>
<path d="M8.78075 4.15514C8.58507 3.9603 8.58439 3.64372 8.77923 3.44804C8.95636 3.27014 9.2341 3.25341 9.43015 3.39822L9.48634 3.44652L13.5197 7.46252C13.6981 7.64017 13.7143 7.91891 13.5684 8.11496L13.5197 8.17111L9.48637 12.1878C9.2907 12.3826 8.97412 12.382 8.77926 12.1863C8.60212 12.0084 8.58655 11.7306 8.7322 11.5352L8.78072 11.4792L12.4581 7.81663L8.78075 4.15514Z" fill="#46A358"/>
</svg>
