<svg width="34" height="24" viewBox="0 0 34 24" fill="none" xmlns="http://www.w3.org/2000/svg">
<path d="M17.7234 19.5625H11.0649C8.22221 19.5625 5.90954 17.2494 5.90954 14.4063V9.12118C5.90954 6.47819 4.59244 4.03178 2.38635 2.57695C1.99016 2.3157 1.88078 1.78272 2.14199 1.38646C2.40319 0.990166 2.93603 0.880725 3.33231 1.14206C4.59166 1.97255 5.61336 3.06791 6.34396 4.32903C6.50184 4.50593 7.77495 5.85557 9.86199 5.85557H19.7562C22.4556 5.80509 24.5685 8.51455 23.8627 11.1206L22.7237 15.6611C22.1475 17.9582 20.0913 19.5625 17.7234 19.5625ZM7.41119 7.08881C7.55404 7.74885 7.62798 8.42943 7.62798 9.12118V14.4063C7.62798 16.3017 9.16976 17.8438 11.0649 17.8438H17.7234C19.302 17.8438 20.6728 16.7742 21.0569 15.2428L22.1959 10.7023C22.6153 9.15384 21.3597 7.54436 19.7562 7.57431H9.86195C8.91805 7.57431 8.09647 7.37077 7.41119 7.08881ZM10.6352 21.9258C10.6352 21.3325 10.1544 20.8516 9.56122 20.8516C8.13612 20.9083 8.13736 22.9438 9.56122 23C10.1544 23 10.6352 22.5191 10.6352 21.9258ZM19.1845 21.9258C19.1845 21.3325 18.7036 20.8516 18.1105 20.8516C16.6854 20.9083 16.6866 22.9438 18.1105 23C18.7036 23 19.1845 22.5191 19.1845 21.9258ZM20.6154 10.1524C20.6154 9.67779 20.2308 9.29305 19.7562 9.29305H10.2056C9.06562 9.33843 9.06648 10.9668 10.2056 11.0118H19.7562C20.2308 11.0118 20.6154 10.6271 20.6154 10.1524Z" fill="#3D3D3D"/>
<circle cx="24.001" cy="8" r="7" fill="#46A358" stroke="white" stroke-width="2"/>
<path d="M26.121 8.83C26.121 10.12 25.041 11.11 23.781 11.11C22.531 11.13 21.421 10.12 21.451 8.82C21.451 8.56 21.491 8.32 21.561 8.1C21.641 7.87 21.731 7.67 21.841 7.49C21.951 7.31 22.121 7.06 22.351 6.73L24.001 4.4H25.251L23.661 6.65C23.751 6.63 23.841 6.62 23.951 6.62C25.101 6.62 26.121 7.58 26.121 8.83ZM25.071 8.83C25.071 8.46 24.941 8.15 24.691 7.9C24.441 7.65 24.141 7.52 23.781 7.52C23.411 7.52 23.111 7.65 22.861 7.9C22.611 8.15 22.491 8.46 22.491 8.83C22.491 9.2 22.611 9.52 22.861 9.77C23.111 10.02 23.411 10.14 23.781 10.14C24.141 10.14 24.441 10.02 24.691 9.77C24.941 9.52 25.071 9.2 25.071 8.83Z" fill="white"/>
</svg>
