<svg width="35" height="35" viewBox="0 0 35 35" fill="none" xmlns="http://www.w3.org/2000/svg">
<rect width="35" height="35" rx="4" fill="white"/>
<path d="M17 26.8873C16.7153 26.8873 16.4408 26.7842 16.2268 26.5968C15.4189 25.8903 14.6399 25.2264 13.9527 24.6408L13.9492 24.6377C11.9342 22.9207 10.1943 21.4378 8.98364 19.9771C7.63034 18.3441 7 16.7958 7 15.1043C7 13.461 7.56351 11.9449 8.58661 10.8351C9.62192 9.71219 11.0425 9.09375 12.5872 9.09375C13.7416 9.09375 14.7989 9.45874 15.7296 10.1785C16.1992 10.5418 16.6249 10.9865 17 11.5051C17.3752 10.9865 17.8008 10.5418 18.2706 10.1785C19.2012 9.45874 20.2585 9.09375 21.413 9.09375C22.9575 9.09375 24.3782 9.71219 25.4135 10.8351C26.4366 11.9449 27 13.461 27 15.1043C27 16.7958 26.3698 18.3441 25.0165 19.9769C23.8059 21.4378 22.0661 22.9205 20.0515 24.6374C19.363 25.224 18.5828 25.8889 17.773 26.5971C17.5592 26.7842 17.2846 26.8873 17 26.8873ZM12.5872 10.2653C11.3736 10.2653 10.2588 10.7496 9.44781 11.6292C8.62476 12.5219 8.17142 13.7561 8.17142 15.1043C8.17142 16.5269 8.70013 17.7992 9.88559 19.2296C11.0314 20.6122 12.7356 22.0645 14.7089 23.7462L14.7126 23.7492C15.4024 24.3371 16.1844 25.0036 16.9983 25.7153C17.8171 25.0023 18.6003 24.3347 19.2916 23.7458C21.2647 22.0642 22.9688 20.6122 24.1146 19.2296C25.2999 17.7992 25.8286 16.5269 25.8286 15.1043C25.8286 13.7561 25.3752 12.5219 24.5522 11.6292C23.7413 10.7496 22.6264 10.2653 21.413 10.2653C20.524 10.2653 19.7078 10.5479 18.9872 11.1052C18.3449 11.602 17.8975 12.23 17.6352 12.6695C17.5003 12.8955 17.2629 13.0304 17 13.0304C16.7371 13.0304 16.4997 12.8955 16.3648 12.6695C16.1026 12.23 15.6552 11.602 15.0128 11.1052C14.2922 10.5479 13.476 10.2653 12.5872 10.2653Z" fill="#3D3D3D"/>
</svg>
