<svg width="35" height="35" viewBox="0 0 35 35" fill="none" xmlns="http://www.w3.org/2000/svg">
<rect width="35" height="35" rx="4" fill="white"/>
<g clip-path="url(#clip0_35288_12)">
<path d="M23.5656 23.0023C19.5704 26.1859 13.9855 25.3049 11.0273 21.6536C8.17211 18.1285 8.35068 13.0431 11.4481 9.82458C14.6486 6.49926 19.6802 6.05534 23.3277 8.78316C24.6345 9.76027 25.6104 11.0034 26.246 12.5081C26.8853 14.0215 27.0795 15.5961 26.8578 17.2201C26.6368 18.8365 25.9918 20.2769 24.9423 21.6212C25.0272 21.6767 25.1178 21.7167 25.1827 21.7816C26.3365 22.9305 27.4859 24.0836 28.6397 25.2325C28.9132 25.5047 29.0493 25.8218 28.9682 26.204C28.8071 26.9644 27.9018 27.2579 27.3211 26.7359C27.0489 26.4918 26.7985 26.2227 26.54 25.9642C25.5923 25.0171 24.6451 24.0693 23.6973 23.1221C23.658 23.0847 23.6168 23.0497 23.5656 23.0023ZM24.9529 15.9864C24.9629 12.1266 21.8468 9.00605 17.9782 9.00043C14.1204 8.99481 11.0067 12.0904 10.9898 15.9476C10.973 19.8168 14.0829 22.9461 17.9633 22.9642C21.8055 22.9823 24.9429 19.8499 24.9529 15.9864Z" fill="#3D3D3D"/>
</g>
<defs>
<clipPath id="clip0_35288_12">
<rect width="19.9913" height="20" fill="white" transform="translate(9 7)"/>
</clipPath>
</defs>
</svg>
