<svg width="24" height="24" viewBox="0 0 24 24" fill="none" xmlns="http://www.w3.org/2000/svg">
<path d="M16.5726 18.0029C12.5755 21.1865 6.988 20.3056 4.02842 16.6542C1.17191 13.129 1.35056 8.04347 4.44943 4.82482C7.65137 1.49941 12.6854 1.05548 16.3346 3.78337C17.642 4.76051 18.6183 6.00364 19.2542 7.50838C19.8938 9.02186 20.0881 10.5965 19.8663 12.2205C19.6452 13.837 19 15.2775 17.9499 16.6217C18.0349 16.6773 18.1255 16.7173 18.1904 16.7822C19.3448 17.9311 20.4947 19.0843 21.6491 20.2331C21.9227 20.5054 22.0589 20.8225 21.9776 21.2047C21.8165 21.9651 20.9107 22.2586 20.3298 21.7366C20.0575 21.4925 19.807 21.2234 19.5484 20.9649C18.6002 20.0177 17.6526 19.0699 16.7044 18.1227C16.665 18.0853 16.6238 18.0503 16.5726 18.0029ZM17.9605 10.9868C17.9705 7.12689 14.8529 4.00627 10.9826 4.00065C7.12292 3.99503 4.00781 7.09068 3.99094 10.9481C3.97408 14.8173 7.08544 17.9467 10.9676 17.9648C14.8117 17.9829 17.9505 14.8504 17.9605 10.9868Z" fill="#3D3D3D"/>
</svg>
